<?xml version="1.0" encoding="utf-8"?>
<!-- Generator: Adobe Illustrator 22.0.0, SVG Export Plug-In . SVG Version: 6.00 Build 0)  -->
<svg version="1.1" id="Layer_1" xmlns="http://www.w3.org/2000/svg" xmlns:xlink="http://www.w3.org/1999/xlink" x="0px" y="0px"
	 viewBox="0 0 961.3 694.1" style="enable-background:new 0 0 961.3 694.1;" xml:space="preserve">
<style type="text/css">
	.st0{fill:#FFFFFF;}
</style>
<g>
	<path class="st0" d="M151,320.8c-21.3,0-39,11.7-53.5,35c-14.5,23.3-21.7,59.9-21.7,109.4c0,47.9,7.6,84.1,22.9,108.6
		c15.3,24.5,33.4,36.6,53.9,36.6c10.9,0,21.7-5.2,32.6-15.3c10.9-10.1,30.2-33,57.9-68.8h1.6V602c-35.8,9.3-69.2,13.7-100.2,13.7
		c-18.1,0-35.4-2.8-51.9-8.4c-16.5-5.6-31.4-14.1-45.1-25.7s-24.5-27.4-32.6-47.1C7,514.7,3,491.8,3,466c0-46.7,13.7-82.9,41-109
		c27.4-26.1,62.4-39,105.4-39c12.5,0,28.2,1.6,47.1,4.4c18.9,2.8,34.2,6,45.9,9.3v74.4h-1.6c-26.1-34.2-45.1-56.7-56.7-67.6
		c-11.7-10.9-23.3-16.1-35-16.1L151,320.8z"/>
	<path class="st0" d="M267.6,609.9c8.7-7.6,13.8-12.6,14.9-14.9c0.8-1.4,1.1-3.1,1.1-5.1v-87.7c0-2-0.3-3.7-1.1-5.1
		c-0.8-1.4-1.7-2.5-2.5-3.4c-0.8-0.8-2.5-2.5-5.3-5.1c-2.8-2.5-5.3-4.8-7.3-6.7v-1.1l60.7-11v120.5c0,2.8,0.8,5.3,2.5,7.6
		c1.7,2.2,5.3,5.9,11.2,11c0.8,0.8,1.4,1.4,1.7,1.7v1.1h-76.7L267.6,609.9z"/>
	<path class="st0" d="M392.9,615.2c-10.4,0-19.4-3.4-26.7-9.8c-7.3-6.5-11-16.3-11-29.2v-98.1h-18v-3.7h18v-18l44.1-27.8h0.6v45.8
		h32.6v3.7h-32.6V570c0,8.4,1.7,14.9,5.3,19.1c3.7,4.2,8.1,6.5,13.8,6.5c5.3,0,10.4-1.7,15.2-4.8l0.6,0.8
		c-3.7,6.2-9.3,11.8-16.6,16.6c-7.3,4.8-16,7.3-25.8,7.3L392.9,615.2z"/>
	<path class="st0" d="M528.3,589.1h-0.3c-4.2,7-10.4,12.9-18.3,18c-7.9,5.1-16.6,7.6-26.4,7.6c-9.8,0-18.5-2.8-26.1-8.4
		c-7.6-5.6-11.5-14.1-11.5-25.6c0-8.4,2.2-16,7-23c4.8-7,11.2-12.9,19.4-17.7c8.1-4.8,16.9-8.4,26.1-11.2c9.3-2.8,19.1-5.1,29.8-6.7
		v-32.6c0-10.4-4.2-15.7-12.9-15.7c-3.1,0-7,2.5-11.8,7.6c-4.8,5.1-14.9,17.4-30.3,37.4h-0.6l-20.2-32.3c27.8-10.7,52-16,72.2-16
		c5.3,0,10.7,0.6,15.7,1.7c5.1,1.1,10.1,3.4,15.2,6.5c5.1,3.1,9,7.6,12.1,13.5c3.1,5.9,4.5,12.9,4.5,21.1v75c0,2.5,0.8,4.8,2.8,6.7
		c2,2,6.2,5.1,12.9,9.3v1.1l-59.3,10.7V589.1z M508.9,596.4c7.9,0,14.3-3.7,19.1-11.2v-61.5c-12.1,4.5-21.6,11-28.7,19.4
		c-7,8.4-10.7,17.7-10.7,28.1c0,8.1,2,14.6,5.9,19.1c3.9,4.5,8.7,6.7,14.1,6.7L508.9,596.4z"/>
	<path class="st0" d="M731.8,587.9c0,2.5,1.1,4.8,3.4,6.7c2.2,2,6.5,4.8,12.6,8.4v1.1l-60.1,11v-24.7h-0.6
		c-11.5,16.3-25.6,24.4-42.4,24.4c-14.9,0-27.5-6.2-38.2-18.5c-10.7-12.4-16-29.8-16-52c0-23.9,5.9-42.2,17.7-54.8
		c11.8-12.6,25-19.1,39.9-19.1s27.5,7,37.9,21.1h0.6v-56.8c0-2-0.3-3.7-1.1-5.1c-0.8-1.4-1.7-2.5-2.5-3.4c-0.8-0.8-2.5-2.5-5.3-5.1
		c-2.8-2.5-5.3-4.8-7.3-6.7v-1.1l60.7-11v186L731.8,587.9z M663.8,601.4c8.4,0,16.3-4.8,23.6-14.6v-91
		c-7.6-10.1-15.7-15.2-24.4-15.2c-17.4,0-26.1,20.5-26.1,61.5c0,39.6,9,59.3,26.7,59.3H663.8z"/>
	<path class="st0" d="M877,561c-2,14.6-8.2,27.3-18.5,37.9c-10.4,10.7-24.2,16-41,16c-19.7,0-36-6.5-48.9-19.4
		c-12.9-12.9-19.4-30.3-19.4-52.3c0-22.5,6.5-40.2,19.4-53.1c12.9-12.9,28.9-19.4,48-19.4c18.3,0,32.6,5.6,43.3,17.1
		c10.7,11.5,16,26.1,16,43.8v1.1h-85.7c0.3,17.4,4.8,30.6,13.5,39.3c8.7,8.7,18.5,13.2,29.8,13.2c8.4,0,16.6-2,24.4-5.9
		c7.9-3.9,14-10.1,18.3-18.3L877,561z M813.5,473c-7,0-12.6,5.1-16.9,15.2c-4.2,10.1-6.5,23.6-6.7,40.7h45.2
		c-0.3-16.9-2.2-30.3-5.9-40.5c-3.7-10.1-9-15.2-16-15.2L813.5,473z"/>
	<path class="st0" d="M888.5,609.9c8.7-7.6,13.8-12.6,14.9-14.9c0.8-1.4,1.1-3.1,1.1-5.1V434.5c0-2-0.3-3.7-1.1-5.1
		c-0.8-1.4-1.7-2.5-2.5-3.4c-0.8-0.8-2.5-2.5-5.3-5.1c-2.8-2.5-5.3-4.8-7.3-6.7v-1.1l60.7-11v188.3c0,2.8,0.8,5.3,2.5,7.6
		c1.7,2.2,5.3,5.9,11.2,11c0.8,0.8,1.4,1.4,1.7,1.7v1.1h-76.7L888.5,609.9z"/>
	<path class="st0" d="M515.8,389.8c-1.6,11.6-6.5,21.7-14.8,30.2c-8.3,8.5-19.2,12.7-32.7,12.7c-15.7,0-28.6-5.1-38.9-15.4
		C419.1,407,414,393.1,414,375.7c0-17.9,5.1-32,15.4-42.3c10.3-10.3,23-15.4,38.3-15.4c14.5,0,25.9,4.5,34.5,13.6
		c8.5,9.2,12.8,20.8,12.8,34.9v0.9h-68.2c0.2,13.9,3.8,24.4,10.7,31.3c6.9,6.9,14.8,10.5,23.7,10.5c6.7,0,13.2-1.6,19.5-4.7
		c6.3-3.1,11.2-8.1,14.5-14.5L515.8,389.8z M465.2,319.8c-5.6,0-10.1,4-13.4,12.1c-3.4,8.1-5.1,18.8-5.4,32.4h36
		c-0.2-13.4-1.8-24.2-4.7-32.2c-2.9-8.1-7.2-12.1-12.8-12.1L465.2,319.8z"/>
	<path class="st0" d="M527.2,428.7c6.9-6,11-10.1,11.9-11.9c0.7-1.1,0.9-2.5,0.9-4V289.1c0-1.6-0.2-2.9-0.9-4c-0.7-1.1-1.3-2-2-2.7
		c-0.7-0.7-2-2-4.3-4c-2.2-2-4.3-3.8-5.8-5.4v-0.9l48.3-8.7v149.9c0,2.2,0.7,4.3,2,6c1.3,1.8,4.3,4.7,8.9,8.7
		c0.7,0.7,1.1,1.1,1.3,1.3v0.9h-61.1L527.2,428.7z"/>
	<polygon class="st0" points="548.6,81.5 578.5,92 556.2,123.3 557.1,124 574.3,129.7 607.8,82.6 541.8,59.5 506.6,107.2 
		525.1,113.4 	"/>
	<polygon class="st0" points="502.8,93.3 479.7,60.9 498.8,35.7 521.8,66.6 523.4,65.5 533.6,51.5 499,4.9 457.9,58.9 492.6,107.2 	
		"/>
	<polygon class="st0" points="438.8,120.1 420.7,94.1 457.2,81.8 456.2,78.8 446.9,65.8 391.5,84.4 431.4,141.9 488.5,123.8 
		477.1,108 	"/>
	<polygon class="st0" points="482.4,177.3 452.1,186.4 451.7,148.7 433.3,154.5 433.9,211.2 500.8,191.1 501.3,132.9 482.7,138.8 	
		"/>
	<polygon class="st0" points="550.3,153.4 549.6,185.1 512.9,173.5 512.2,175.7 512.2,192.7 567.5,210.1 569.1,140.2 512.2,121.2 
		512.2,140.7 	"/>
	<path class="st0" d="M322.5,431.1c0,13.7-11.1,24.9-24.9,24.9c-13.7,0-24.9-11.1-24.9-24.9c0-13.7,11.1-24.9,24.9-24.9
		C311.4,406.2,322.5,417.3,322.5,431.1"/>
	<polygon class="st0" points="495,664.9 497.2,667.1 499.4,664.9 499.4,666.8 497.2,669 495,666.8 	"/>
	<path class="st0" d="M269.2,674.8c-0.6-2.7-1.7-4.9-3.3-6.6c-1.6-1.6-3.9-2.4-7-2.4c-7.1,0-11.2,5.8-11.2,12.6
		c0,6.9,3.3,12.6,11,12.6c3.3,0,5.8-0.9,7.4-2.7c1.7-1.8,2.7-4.2,3.2-7l4.3,0.8c-1.6,7.5-6.1,12.9-15,12.9
		c-10.8,0-15.3-7.8-15.3-16.6c0-8.7,5.7-16.6,15.6-16.6c8.4,0,12.8,4.8,14.6,11.8L269.2,674.8z"/>
	<polygon class="st0" points="283.4,694.6 283.4,662.3 306.7,662.3 306.7,666.1 287.7,666.1 287.7,676.6 303,676.6 303,679.9 
		287.7,679.9 287.7,690.7 306.8,690.7 306.8,694.6 	"/>
	<polygon class="st0" points="321.1,670.2 321.1,694.6 317,694.6 317,662.3 322.1,662.3 337.3,686.7 339.1,690.2 339,686.3 
		339,662.3 343.1,662.3 343.1,694.6 338.3,694.6 322.7,669.5 320.8,666.1 	"/>
	<polygon class="st0" points="352.8,666.1 352.8,662.3 378.4,662.3 378.4,666.1 367.7,666.1 367.7,694.6 363.4,694.6 363.4,666.1 	
		"/>
	<polygon class="st0" points="388.1,694.6 388.1,662.3 411.4,662.3 411.4,666.1 392.3,666.1 392.3,676.6 407.6,676.6 407.6,679.9 
		392.3,679.9 392.3,690.7 411.5,690.7 411.5,694.6 	"/>
	<path class="st0" d="M425.9,681.8v12.8h-4.3v-32.4h14c7.9,0,11.5,3.7,11.5,9c0,2.5-0.8,4.5-2.4,6.1c-1.6,1.5-3.6,2.5-6,2.9
		c1.6,0.2,2.9,0.7,4,1.4c1.6,1.2,2.7,3.5,3.6,7l1.5,5.9h-4.6l-1.4-5.8c-1.4-5.8-2.8-7-9-7H425.9z M425.9,666v12.6h8.2
		c5.5,0,8.7-2.3,8.7-6.4c0-3.9-2.4-6.2-8.4-6.2H425.9z"/>
	<path class="st0" d="M472.3,678.4c0-8.8,5.5-16.6,15.4-16.6c10.4,0,15.5,7.6,15.5,16.6c0,8.8-5.1,16.7-15.6,16.7
		C477,695.1,472.3,687.3,472.3,678.4 M498.7,678.4c0-7-3.5-12.7-11-12.7c-7.2,0-11,5.8-11,12.7c0,6.9,3.3,12.8,11,12.8
		C495.3,691.2,498.7,685.3,498.7,678.4"/>
	<polygon class="st0" points="513.5,694.6 513.5,662.3 535.8,662.3 535.8,666.1 517.8,666.1 517.8,677.7 533.5,677.7 533.5,681 
		517.8,681 517.8,694.6 	"/>
	<path class="st0" d="M566.4,684.4v10.2h-4.3v-32.4h12c8.6,0,13.3,4.1,13.3,10.6c0,7.3-5.2,11.5-13.3,11.5H566.4z M566.4,666.2v14.9
		h7.4c6.2,0,9.4-2.6,9.4-7.5c0-5.1-3.1-7.4-9.5-7.4H566.4z"/>
	<path class="st0" d="M591.6,694.6l12.9-32.4h4.9l12.9,32.4h-4.6l-2.8-7.4h-15.9l-2.8,7.4H591.6z M605.3,670.5l-5.2,13.5h13.4
		l-5.2-13.6l-1.5-4.3L605.3,670.5z"/>
	<path class="st0" d="M631.2,694.6v-32.4h10.1c11.2,0,17.3,5.5,17.3,15.8c0,9.6-5.8,16.6-16.9,16.6H631.2z M635.5,666.2v24.5h6.2
		c8.5,0,12.6-5.1,12.6-12.6c0-7.9-4.3-11.9-13-11.9H635.5z"/>
	<polygon class="st0" points="669,694.6 669,662.3 692.3,662.3 692.3,666.1 673.2,666.1 673.2,676.6 688.5,676.6 688.5,679.9 
		673.2,679.9 673.2,690.7 692.4,690.7 692.4,694.6 	"/>
	<polygon class="st0" points="702.5,694.6 702.5,662.3 706.8,662.3 706.8,690.7 724.1,690.7 724.1,694.6 	"/>
</g>
</svg>
