<?xml version="1.0" encoding="utf-8"?>
<!-- Generator: Adobe Illustrator 22.0.0, SVG Export Plug-In . SVG Version: 6.00 Build 0)  -->
<svg version="1.1" id="Layer_1" xmlns="http://www.w3.org/2000/svg" xmlns:xlink="http://www.w3.org/1999/xlink" x="0px" y="0px"
	 viewBox="0 0 180.1 171.8" style="enable-background:new 0 0 180.1 171.8;" xml:space="preserve">
<style type="text/css">
	.st0{fill:#FFFFFF;}
</style>
<g>
	<polygon class="st0" points="130.6,63.7 155.5,72.4 136.9,98.4 137.7,99 152,103.7 179.9,64.6 125,45.4 95.7,85 111.1,90.1 	"/>
	<polygon class="st0" points="92.6,73.5 73.3,46.5 89.2,25.6 108.3,51.3 109.6,50.3 118.1,38.7 89.4,0 55.2,44.9 84.1,85.1 	"/>
	<polygon class="st0" points="39.3,95.8 24.3,74.1 54.6,63.9 53.8,61.4 46,50.6 0,66 33.1,113.8 80.6,98.8 71.2,85.7 	"/>
	<polygon class="st0" points="75.6,143.3 50.4,150.9 50.1,119.5 34.7,124.4 35.2,171.5 90.9,154.7 91.3,106.4 75.9,111.3 	"/>
	<polygon class="st0" points="132,123.5 131.4,149.8 100.9,140.2 100.4,142 100.4,156.1 146.4,170.6 147.7,112.4 100.3,96.7 
		100.3,112.9 	"/>
</g>
</svg>
