<?xml version="1.0" encoding="utf-8"?>
<!-- Generator: Adobe Illustrator 26.0.1, SVG Export Plug-In . SVG Version: 6.00 Build 0)  -->
<svg version="1.1" id="Layer_1" xmlns="http://www.w3.org/2000/svg" xmlns:xlink="http://www.w3.org/1999/xlink" x="0px" y="0px"
	 viewBox="0 0 283.5 283.5" style="enable-background:new 0 0 283.5 283.5;" xml:space="preserve">
<style type="text/css">
	.st0{fill:#231F20;}
</style>
<g>
	<polygon points="182.4,119.7 207.3,128.4 188.7,154.4 189.5,155 203.8,159.7 231.7,120.6 176.8,101.4 147.5,141 162.9,146.1 	"/>
	<polygon points="144.4,129.5 125.1,102.5 141,81.6 160.1,107.3 161.4,106.3 169.9,94.7 141.2,56 107,100.9 135.9,141.1 	"/>
	<polygon points="91.1,151.8 76.1,130.1 106.4,119.9 105.6,117.4 97.8,106.6 51.8,122 84.9,169.8 132.4,154.8 123,141.7 	"/>
	<polygon points="127.4,199.3 102.2,206.9 101.9,175.5 86.5,180.4 87,227.5 142.7,210.7 143.1,162.4 127.7,167.3 	"/>
	<polygon points="183.8,179.5 183.2,205.8 152.7,196.2 152.2,198 152.2,212.1 198.2,226.6 199.5,168.4 152.1,152.7 152.1,168.9 	"/>
</g>
</svg>
