<?xml version="1.0" encoding="utf-8"?>
<!-- Generator: Adobe Illustrator 22.0.0, SVG Export Plug-In . SVG Version: 6.00 Build 0)  -->
<svg version="1.1" id="Layer_1" xmlns="http://www.w3.org/2000/svg" xmlns:xlink="http://www.w3.org/1999/xlink" x="0px" y="0px"
	 viewBox="0 0 851 1259" style="enable-background:new 0 0 851 1259;" xml:space="preserve">
<style type="text/css">
	.st0{fill:#57C0BF;}
</style>
<g>
	<rect x="67.5" y="332.5" class="st0" width="350.5" height="608.8"/>
	<rect x="67.5" y="67.5" class="st0" width="350.5" height="250"/>
	<rect x="433" y="956.3" class="st0" width="350.5" height="235"/>
	<path class="st0" d="M0,0v1259h851V0H0z M798.5,52.5v15v250v15v608.8v15v235v15h-15H433h-15H67.5h-15l0,35.2V52.5h15v0H418v0h15v0
		h350.5v0L798.5,52.5L798.5,52.5z"/>
	<rect x="67.5" y="956.3" class="st0" width="350.5" height="235"/>
	<rect x="433" y="332.5" class="st0" width="350.5" height="608.8"/>
	<rect x="433" y="67.5" class="st0" width="350.5" height="250"/>
</g>
</svg>
