<?xml version="1.0" encoding="utf-8"?>
<!-- Generator: Adobe Illustrator 22.0.0, SVG Export Plug-In . SVG Version: 6.00 Build 0)  -->
<svg version="1.1" id="Layer_1" xmlns="http://www.w3.org/2000/svg" xmlns:xlink="http://www.w3.org/1999/xlink" x="0px" y="0px"
	 viewBox="0 0 204.2 43" style="enable-background:new 0 0 204.2 43;" xml:space="preserve">
<style type="text/css">
	.st0{fill:#FFFFFF;}
	.st1{fill:#007169;}
	.st2{fill:#8FDA41;}
</style>
<path class="st0" d="M34.6,43H8.8c-4.7,0-8.5-3.8-8.5-8.5V8.7c0-4.7,3.8-8.5,8.5-8.5h25.8c4.7,0,8.5,3.8,8.5,8.5v25.8
	C43.1,39.2,39.3,43,34.6,43z"/>
<g>
	<g>
		<path class="st1" d="M23.7,11.4c1-3.4-1-7-4.4-8s-7,1-8,4.4L4.4,31.8c-1,3.4,1,7,4.4,8c3.4,1,7-1,8-4.4L23.7,11.4z"/>
		<g>
			<path class="st2" d="M38.9,16.1c1-3.4-1-7-4.4-8c-3.4-1-7,1-8,4.4l-1.2,4.1c-1,3.4,1,7,4.4,8c3.4,1,7-1,8-4.4
				C37.7,20.3,38.9,16.1,38.9,16.1z"/>
		</g>
	</g>
</g>
<g>
	<g>
		<path class="st0" d="M61,14.9c-2.5,0-4.5,2.4-4.5,5.6c0,2.5,1.4,3.8,3.4,3.8c2.1,0,4.5-1.9,4.5-5.7C64.4,16.1,63,14.9,61,14.9z
			 M57.9,13c0.9-1.2,2.7-2,4.6-2c4.2,0,6.3,3,6.3,6.8c0,6-3.6,10.3-8.5,10.3c-2.5,0-4.3-1.1-5-2.4l-1.7,8.3h-4.4l4.2-19.9
			c0.3-1.5,0.3-2.6,0.3-2.8H58C58,11.5,58,12.4,57.9,13z M74.9,27.8h-4.4l5.1-24.1H80L74.9,27.8z M88.8,14.9c-2.8,0-4.3,3-4.3,5.7
			c0,2.3,1.2,3.6,3.2,3.6c2.3,0,4.3-2.2,4.3-5.8C91.9,16.2,90.7,14.9,88.8,14.9z M93.6,11.3h4.3l-2.7,12.8c-0.2,1-0.3,2-0.3,3
			c0,0.1,0,0.3,0,0.6h-4.1c0-0.3,0-0.5,0-0.8c0-0.3,0-0.8,0.1-1.2c-0.8,1.1-2.2,2.3-4.4,2.3c-4,0-6.4-3.3-6.4-7.3
			c0-5.6,3.6-9.8,8.4-9.8c3,0,4.3,1.4,4.8,2.3L93.6,11.3z M102.8,34.1h-4.9l5.7-8.9l-3.6-13.8h4.7l2.2,9.2l5.5-9.2h5
			C117.3,11.3,102.8,34.1,102.8,34.1z M124.6,28c-2.9,0-4.6-1.6-4.6-4.2c0-0.4,0-0.8,0.1-1.3l1.5-7.1h-2.9l0.8-3.9h0.7
			c1.9,0,2.8-1,3.2-2.7l0.5-2.2h4l-1.1,4.9h3.2l-0.8,3.9h-3.2l-1.4,6.8c-0.1,0.2-0.1,0.4-0.1,0.7c0,1,0.7,1.4,1.8,1.4
			c0.4,0,0.9-0.1,1.2-0.1l-0.8,3.5C126.5,27.7,125.8,28,124.6,28z M139.7,14.9c-2.5,0-4.4,2.4-4.4,5.5c0,2.4,1.4,3.8,3.4,3.8
			c2.1,0,4.4-1.8,4.4-5.6C143.1,16.3,141.8,14.9,139.7,14.9z M147.5,18.5c0,5.3-3.8,9.8-9.2,9.8c-4.6,0-7.5-3.4-7.5-7.6
			c0-5.8,4.1-9.8,9.2-9.8C144.7,10.8,147.5,14.2,147.5,18.5z M163.7,27.8l2.1-9.7c0.4-1.9,1.5-3.3,3.3-3.3c1.7,0,2.5,1,2.5,2.4
			c0,0.3,0,0.6-0.1,0.9l-2.1,9.6h4.4l2.2-10c0.1-0.5,0.2-1.1,0.2-1.6c0-3.2-2.2-5.2-5.3-5.2c-1.6,0-3.7,0.4-5.4,2.5
			c-0.7-1.5-2.2-2.5-4.3-2.5c-1.7,0-3.4,0.7-4.5,2c0.1-0.7,0.1-1.4,0.1-1.6h-4.3c0,0.2,0,1.3-0.3,2.8l-2.9,13.6h4.4l2.1-9.6
			c0.4-1.9,1.5-3.3,3.3-3.3c1.6,0,2.4,1,2.4,2.4c0,0.3,0,0.6-0.1,0.9l-2,9.6H163.7L163.7,27.8z M182.4,6.1c0,1.4,1,2.4,2.4,2.4
			c1.6,0,3-1.2,3-3c0-1.3-1-2.4-2.5-2.4C183.7,3.2,182.4,4.5,182.4,6.1z M182.7,27.8l3.5-16.4h-4.4l-3.5,16.4H182.7z M204.2,16.3
			c-0.5-2.7-2.6-5.5-7.1-5.5c-4.9,0-9.2,3.8-9.2,9.7c0,4.6,3.3,7.7,7.8,7.7c3.9,0,6.5-2.4,7.6-5l-3.7-1.4c-0.6,1.2-1.8,2.4-3.7,2.4
			c-2.2,0-3.6-1.4-3.6-3.8c0-3.7,2.4-5.6,4.5-5.6c2.1,0,3.1,1.3,3.4,2.7L204.2,16.3L204.2,16.3z"/>
	</g>
</g>
</svg>
